Coordinates
version=1
nRows=6
nColumns=40
inDegrees=yes

Units are S.I. units (second, meters, Newtons, ...)
If the header above contains a line with 'inDegrees', this indicates whether rotational values are in degrees (yes) or radians (no).

endheader
time	pelvis_tilt	pelvis_list	pelvis_rotation	pelvis_tx	pelvis_ty	pelvis_tz	hip_flexion_r	hip_adduction_r	hip_rotation_r	knee_angle_r	knee_angle_r_beta	ankle_angle_r	subtalar_angle_r	mtp_angle_r	hip_flexion_l	hip_adduction_l	hip_rotation_l	knee_angle_l	knee_angle_l_beta	ankle_angle_l	subtalar_angle_l	mtp_angle_l	lumbar_extension	lumbar_bending	lumbar_rotation	arm_flex_r	arm_add_r	arm_rot_r	elbow_flex_r	pro_sup_r	wrist_flex_r	wrist_dev_r	arm_flex_l	arm_add_l	arm_rot_l	elbow_flex_l	pro_sup_l	wrist_flex_l	wrist_dev_l
      5.86500000000000021316	     29.85359613504879661150	      5.96444236782447756440	   -178.62152027340036397618	      0.29576895437686828716	      0.84588279905113883395	     -0.64813499064005120065	     45.81765888459931801435	     -2.43697416106741160391	    -17.06581542330794576401	     15.48027113260301135256	      0.27018170036535427148	      2.18280042741203228474	      0.00000000000000000000	      0.00000000000000000000	     51.37457739849494942064	    -12.50030557651338547487	     -1.09493289310474994913	     20.87222656518626351385	      0.36428907578472713436	     -0.84550160795246742662	      0.00000000000000000000	      0.00000000000000000000	      8.88394249664473889538	      6.21377420607252872742	     -1.29410129559598230387	     24.39759621093690356020	    -11.95516324070964309101	     64.02110701248726343238	      2.37346624751366030992	     85.49558599975075878774	      0.00000000000000000000	      0.00000000000000000000	     14.39282647642880519356	     -8.94599330163679340444	     81.85329232988227943224	      0.70875470685556740680	      3.39192401929316256215	      0.00000000000000000000	      0.00000000000000000000
      5.87000000000000010658	     29.81619913591392290186	      5.94882269644368300021	   -178.56750422946765866072	      0.29427542390213096146	      0.84617898611011721499	     -0.64798924303120852830	     45.57970955433428628112	     -2.48008401732427152808	    -17.30038747447856906092	     15.38857360515562078263	      0.26858127659545943944	      2.24304993201611679865	      0.00000000000000000000	      0.00000000000000000000	     51.16338583138580276000	    -12.46596460147914875449	     -1.16881810602590818782	     20.81692756421975687431	      0.36332392614479808168	     -0.81220452101769802233	      0.00000000000000000000	      0.00000000000000000000	      9.40551978826736601036	      6.16397445255369369477	     -1.49867971672133060146	     24.09187576799099161917	    -11.98329847229338085413	     63.92784262652523352699	      2.39969845698634820508	     85.52388155134252656353	      0.00000000000000000000	      0.00000000000000000000	     14.01246978615452931649	     -8.97302559855823744783	     81.83537003744585547338	      0.71441538276111082872	      3.38794119631506651658	      0.00000000000000000000	      0.00000000000000000000
      5.87500000000000000000	     29.57617001086450159164	      6.11507155652754530450	   -178.47978520807143354432	      0.29235063010348755208	      0.84696613532872666585	     -0.64792198241712495310	     44.75911619771076033203	     -2.24068340907765728431	    -17.61897222150004083119	     14.50985422535023339208	      0.25324473021677285089	      2.16432295316928691165	      0.00000000000000000000	      0.00000000000000000000	     50.56410723508783888747	    -12.58421674226978126399	     -1.23786407794970054752	     20.33766741307999836863	      0.35495925853380366766	     -0.66241870847458805827	      0.00000000000000000000	      0.00000000000000000000	      9.65630297811879856340	      6.30449027543023721165	     -1.67614748803604340921	     23.80461156953526113966	    -11.95462939030076654490	     61.68003473628711219590	      2.42321535614571104134	     86.01380433864709118552	      0.00000000000000000000	      0.00000000000000000000	     13.73652928097481584757	     -8.86343365206182909333	     81.00723122312125212829	      0.71761807364104834850	      3.30250367958475177232	      0.00000000000000000000	      0.00000000000000000000
      5.87999999999999989342	     29.61348668018545993164	      5.97880104542976020809	   -178.57897516294772799483	      0.29095522112837540751	      0.84724668806599778836	     -0.64799535065098379238	     44.48858733988523539438	     -2.19791723098281899240	    -17.47361259616062767464	     14.05635082354600307042	      0.24532960268629425138	      2.09715918524556066416	      0.00000000000000000000	      0.00000000000000000000	     50.29873415028285421613	    -12.58638416616041055818	     -1.61494280498297171356	     20.10727649162359398360	      0.35093817838768576189	     -0.58813032249501917548	      0.00000000000000000000	      0.00000000000000000000	     10.17887837271456774602	      6.15641362294519289833	     -1.75662506218055192164	     23.55216871708059045432	    -11.87662163486711541793	     60.76034852402570862751	      2.40965681346468896251	     86.07728936701280986199	      0.00000000000000000000	      0.00000000000000000000	     13.47068022798628028625	     -8.70633146637301535975	     79.26098485441127650120	      0.72416247468765704287	      3.33571287394217730338	      0.00000000000000000000	      0.00000000000000000000
      5.88499999999999978684	     29.80595487937685916791	      6.14121420273684304192	   -178.57144477211272715067	      0.28987061330641350487	      0.84720610117375039216	     -0.64806984213096407998	     44.40269861902626757910	     -2.00251671944886977528	    -17.60510611992307516971	     13.66168175736917156371	      0.23844132802573714258	      1.97975765121927205215	      0.00000000000000000000	      0.00000000000000000000	     50.38729034137466555876	    -12.71873145379700886792	     -1.57801611293790267077	     19.99997549987870115729	      0.34906542279108210280	     -0.52646948387075587217	      0.00000000000000000000	      0.00000000000000000000	     10.88416333116535739123	      6.29687922792466636679	     -2.07052349320148598721	     23.31809968104339603201	    -11.81861295451369464615	     60.10722305394757114527	      2.46481430694723302466	     86.07075127526350399876	      0.00000000000000000000	      0.00000000000000000000	     13.19503464253801716666	     -8.48080999972041738033	     76.81336780273343833869	      0.72949459500167157522	      3.47292136873037859957	      0.00000000000000000000	      0.00000000000000000000
      5.88999999999999968026	     29.80033264726700892311	      6.19171749504977242395	   -178.48767300302819194258	      0.28853874418362540633	      0.84744883814203497696	     -0.64785120407818586052	     44.09803048629802901814	     -1.96436007213328944765	    -17.76970109594130775577	     13.27564285327288828853	      0.23170367810846637102	      1.94694059947931585874	      0.00000000000000000000	      0.00000000000000000000	     50.13580552406097723406	    -12.69426128895176475453	     -1.57944426590355635476	     19.68758449680118971514	      0.34361317123377177474	     -0.46528903145524902474	      0.00000000000000000000	      0.00000000000000000000	     11.36361989560353968898	      6.31694725833509451718	     -2.21706141061490535904	     23.02697399132180322567	    -11.83298613027096557460	     58.27486809359844244227	      2.48805480428052439024	     86.38644865499489355898	      0.00000000000000000000	      0.00000000000000000000	     12.93306505984925713904	     -8.33402487112920731249	     76.06117913738778213428	      0.73051995336287678384	      3.33625104109799019980	      0.00000000000000000000	      0.00000000000000000000
